# xmcd
#
# Track frame offsets: 
#        150
#        11338
#        19198
#        32073
#        44693
#        55383
#        70590
#        81930
#        93205
#        104200
#        113595
#        126340
#
# Disc length: 1827 seconds
#
# Revision: 2
# Processed by: cddbd v1.5.2PL0 Copyright (c) Steve Scherf et al.
# Submitted via: ExactAudioCopy v0.95b4
#
DISCID=9d07210c
DTITLE=Watson, Arthel 'Doc' - Red Rocking Chair (wwith T. Michael Cole
DTITLE=man)
DYEAR=1900
DGENRE=Country
TTITLE0=Sadie
TTITLE1=Fisher's Hornpipe - Devil's Dream
TTITLE2=Along the Road
TTITLE3=Smoke, Smoke, Smoke
TTITLE4=Below Freezing
TTITLE5=California Blues
TTITLE6=John Hurt
TTITLE7=Mole In the Ground
TTITLE8=Any Old Time
TTITLE9=Red Rocking Chair
TTITLE10=How Long Blues
TTITLE11=Down Yonder
EXTD=
EXTT0=
EXTT1=
EXTT2=
EXTT3=
EXTT4=
EXTT5=
EXTT6=
EXTT7=
EXTT8=
EXTT9=
EXTT10=
EXTT11=
PLAYORDER=
